<svg width="51" height="50" viewBox="0 0 51 50" fill="none" xmlns="http://www.w3.org/2000/svg">
<path d="M41.7151 50H9.28468C4.45832 50 0.5 46.0444 0.5 41.1867V8.77863C0.5 3.95559 4.45832 0 9.28468 0H41.7151C46.5415 0 50.4998 3.95559 50.4998 8.77863V41.1867C50.5345 46.0444 46.5762 50 41.7151 50Z" fill="#330000"/>
<path d="M20.7075 29.9097C19.4576 29.9097 18.2423 29.9097 16.9923 29.9097C16.6798 29.9097 16.7492 29.875 16.6451 30.1526C16.1242 31.714 15.6381 33.2755 15.1173 34.8022C15.0131 35.1491 14.909 35.1838 14.5617 35.1838C13.3465 35.1838 12.1312 35.1838 10.9159 35.1838C10.3951 35.1838 10.3257 35.1145 10.4993 34.594C11.2284 32.5815 11.9576 30.5343 12.652 28.4524C14.1798 24.0457 15.7076 19.6391 17.2353 15.2324C17.4784 14.5038 17.652 13.7751 17.652 12.977C17.652 12.7689 17.7215 12.6995 17.9298 12.6995C17.9992 12.6995 18.0687 12.6995 18.1381 12.6995C19.8048 12.6995 21.4714 12.6995 23.1034 12.6995C23.1381 12.6995 23.2075 12.6995 23.2423 12.6995C23.5548 12.6995 23.5895 12.7342 23.6936 13.0117C26.2631 20.229 28.7978 27.4115 31.3672 34.6287C31.4019 34.7328 31.4367 34.8369 31.4714 34.941C31.5061 35.1145 31.4367 35.2185 31.2631 35.2185C31.1936 35.2185 31.1242 35.2185 31.0547 35.2185C29.6658 35.2185 28.277 35.2185 26.8881 35.2185C26.5409 35.2185 26.5061 35.1838 26.3672 34.8369C25.8117 33.2755 25.2909 31.6793 24.7353 30.1179C24.6311 29.875 24.7006 29.9097 24.4228 29.9097C23.1728 29.9097 21.9575 29.9097 20.7075 29.9097ZM23.3464 25.5725C23.3811 25.5031 23.3464 25.4684 23.3464 25.4337C22.4437 22.5537 21.4714 19.6738 20.6728 16.7591C20.6728 16.7591 20.6728 16.7591 20.6381 16.7591C20.6381 16.7591 20.6381 16.7591 20.6034 16.7591C20.6034 16.8285 20.5687 16.8632 20.5687 16.9326C20.3603 17.9389 20.0826 18.9451 19.7353 19.9514C19.1451 21.7904 18.6589 23.6294 17.9992 25.4684C17.9645 25.5378 17.9645 25.5725 17.9992 25.6419C19.8048 25.5725 21.5756 25.5725 23.3464 25.5725Z" fill="#FE9900"/>
<path d="M33.832 26.787C33.832 24.1152 33.832 21.4088 33.832 18.737C33.832 18.2859 33.832 18.2512 34.2834 18.2512C35.5681 18.2512 36.8529 18.2512 38.1376 18.2512C38.207 18.2512 38.2765 18.2512 38.3459 18.2512C38.5195 18.2512 38.589 18.3206 38.6237 18.4941C38.6237 18.5635 38.6237 18.6329 38.6237 18.7023C38.6237 24.0805 38.6237 29.4587 38.6237 34.8369C38.6237 34.8716 38.6237 34.941 38.6237 34.9757C38.6237 35.2533 38.5195 35.3227 38.2765 35.3227C36.9223 35.3227 35.6029 35.3227 34.2487 35.3227C33.9362 35.3227 33.8668 35.2186 33.8668 34.9063C33.8668 33.102 33.8668 31.2977 33.8668 29.4934C33.832 28.5913 33.832 27.6891 33.832 26.787Z" fill="#FE9900"/>
<path d="M36.2283 16.4469C35.8811 16.4469 35.5339 16.4122 35.1866 16.2734C34.1797 15.857 33.6589 15.059 33.5894 13.9833C33.5547 13.4282 33.6241 12.873 33.9366 12.3525C34.5269 11.4157 35.4297 10.9993 36.5408 11.0687C36.7839 11.0687 37.0269 11.1381 37.27 11.2075C38.0338 11.4504 38.52 12.0056 38.7977 12.7342C39.0408 13.3935 39.0061 14.0874 38.763 14.7814C38.3463 15.857 37.3394 16.5163 36.2283 16.4469Z" fill="#FE9900"/>
</svg>
