<svg width="49" height="40" viewBox="0 0 49 40" fill="none" xmlns="http://www.w3.org/2000/svg">
<g clip-path="url(#clip0_147_443)">
<g opacity="0.8">
<path d="M33.0059 23.0737C32.8088 27.0663 32.1187 31.0096 30.0979 34.6079C29.5557 35.5937 28.9149 36.5795 28.0277 37.2696C27.8306 37.4175 27.5841 37.6147 27.3377 37.4668C27.1405 37.3189 27.1898 37.0232 27.2391 36.826C27.6827 34.5093 28.1263 32.2419 28.5206 29.9745C29.0628 26.9185 29.3585 23.8131 28.8656 20.7078C28.422 17.9475 26.9926 15.7293 25.1689 13.7084C23.4438 11.786 21.4723 10.1101 19.3528 8.58212C18.1699 7.74417 18.0713 6.75835 19.1064 5.67394C19.895 4.88528 20.8315 4.58952 21.9159 4.78669C23.1481 4.98385 24.1832 5.57536 25.0704 6.41331C29.8514 10.8988 32.9073 16.2223 33.0059 23.0737Z" fill="#353535"/>
<path d="M40.6468 35.2487C38.5767 35.2487 36.5558 35.2487 34.4857 35.2487C34.2393 35.2487 33.9928 35.2487 33.6971 35.2487C33.3521 35.1995 33.007 35.1009 32.9085 34.7065C32.8099 34.2629 33.0563 33.9672 33.4506 33.8686C34.3378 33.6221 34.4857 32.9813 34.4857 32.1434C34.4857 27.2636 34.4857 22.3837 34.4857 17.5039C34.4857 16.6659 34.3871 15.9759 33.4013 15.7294C33.0563 15.6308 32.8592 15.3844 32.9085 15.0393C32.9577 14.645 33.2042 14.4971 33.5492 14.4478C33.8449 14.3985 34.0914 14.3492 34.3871 14.3492C38.1824 14.3492 42.0269 14.3492 45.8222 14.3492C47.0544 14.3492 47.4487 14.6943 47.6952 15.8773C47.7938 16.3702 47.8431 16.9124 47.8924 17.4053C47.9416 17.6518 47.8924 17.8489 47.6459 17.9968C47.3995 18.1447 47.153 18.0954 46.9066 17.8982C46.7094 17.7503 46.6108 17.5532 46.4137 17.4053C45.5758 16.5181 44.59 15.9759 43.3085 16.0252C41.8791 16.0744 40.4004 16.0252 38.971 16.0252C37.7388 16.0252 37.2952 16.4688 37.2459 17.6518C37.1966 19.2784 37.2459 20.905 37.1966 22.5316C37.1966 23.0245 37.4431 23.1724 37.8867 23.1724C39.6118 23.1724 41.2876 23.1724 43.0127 23.1724C43.5549 23.1724 44.0478 22.9259 44.4914 22.5809C45.1814 22.088 45.5758 22.2359 45.6743 23.1231C45.7236 23.6653 45.7729 24.2568 45.6743 24.8483C45.5758 25.6369 45.0336 25.8834 44.3928 25.4398C43.7521 24.9469 43.0127 24.799 42.2241 24.799C40.7947 24.799 39.3653 24.799 37.9359 24.799C37.2952 24.799 37.098 25.0455 37.098 25.637C37.1473 27.4114 37.098 29.1859 37.1473 30.9604C37.1966 33.1292 37.7388 33.6221 39.9075 33.6221C41.0412 33.6221 42.1748 33.5728 43.3085 33.6221C44.7871 33.6714 46.0194 33.1785 47.1037 32.1927C47.3009 32.0448 47.498 31.8476 47.6952 31.6998C47.9909 31.5026 48.2867 31.2561 48.6317 31.5026C48.9274 31.6998 48.9274 32.0448 48.8781 32.3405C48.7796 32.9813 48.6317 33.5728 48.5824 34.2136C48.4838 34.953 48.0402 35.2487 47.3009 35.2487C45.1322 35.1995 42.8649 35.2487 40.6468 35.2487Z" fill="#353535"/>
<path d="M18.0219 35.2487C15.9518 35.2487 13.9309 35.2487 11.8608 35.2487C11.6143 35.2487 11.3679 35.2487 11.0721 35.2487C10.7271 35.1995 10.3821 35.1009 10.2835 34.7065C10.1849 34.3122 10.4314 34.0165 10.7764 33.9179C11.8608 33.6221 11.91 32.8335 11.91 31.8969C11.8608 27.165 11.91 22.433 11.91 17.7011C11.91 16.7645 11.8608 15.9759 10.7764 15.7294C10.4807 15.6801 10.2835 15.3844 10.3328 15.0886C10.3328 14.6943 10.6285 14.5464 10.9243 14.4478C11.22 14.3985 11.565 14.3492 11.8608 14.3492C15.6067 14.3492 19.402 14.3492 23.148 14.3492C24.3802 14.3492 24.8238 14.7436 25.0702 15.9266C25.1688 16.4195 25.2181 16.8631 25.2674 17.356C25.3167 17.6518 25.2674 17.8982 24.9717 17.9968C24.7252 18.1447 24.4295 18.0461 24.2816 17.8489C22.8029 15.828 20.6835 15.9266 18.5641 16.0252C17.7754 16.0744 16.9868 16.0251 16.1489 16.0744C15.2124 16.1237 14.7688 16.5181 14.7195 17.4546C14.6702 19.1798 14.6702 20.8557 14.6702 22.5809C14.6702 23.0738 14.9167 23.2217 15.3603 23.2217C17.0361 23.2217 18.7119 23.2217 20.3878 23.2217C21.0285 23.2217 21.5214 22.9259 22.0143 22.5316C22.5072 22.1373 22.8522 22.3344 23.0494 22.8766C23.2465 23.5667 23.3451 24.3061 23.148 24.9962C22.9508 25.6862 22.5072 25.8834 21.9157 25.4891C21.2257 24.9962 20.4864 24.8483 19.6484 24.8483C18.2683 24.8483 16.839 24.8483 15.4589 24.8483C14.8674 24.8483 14.6209 25.0455 14.6702 25.637C14.7195 27.51 14.6702 29.3831 14.7195 31.2561C14.7688 33.0799 15.3603 33.6221 17.184 33.6221C18.4162 33.6221 19.6484 33.5728 20.8807 33.6221C22.3101 33.6714 23.5423 33.1292 24.6266 32.1927C25.021 31.8476 25.4153 31.1576 26.056 31.4533C26.6968 31.7983 26.3025 32.4884 26.2532 33.0306C25.9082 35.2487 25.9082 35.2487 23.6409 35.2487C21.7186 35.2487 19.8456 35.2487 18.0219 35.2487Z" fill="#353535"/>
<path d="M3.13721 7.30058C3.13721 3.60374 7.08034 0.892714 10.1363 2.32216C11.122 2.76578 11.122 3.01225 10.3827 3.70232C8.6083 5.32894 6.88318 7.05412 5.10877 8.68073C4.76375 8.97648 4.46801 9.56798 3.92583 9.37082C3.43294 9.17365 3.33436 8.58215 3.23579 8.08924C3.13721 7.7442 3.1865 7.39916 3.13721 7.30058Z" fill="#ADADAD"/>
<path d="M6.98085 1.1884C5.65004 1.68131 4.51639 2.42068 3.53061 3.40651C3.03772 3.94871 2.49554 4.49091 2.15052 5.1317C2.10123 5.23028 1.95336 5.37816 1.85478 5.42745C1.70691 5.47674 1.65762 5.27957 1.60834 5.1317C1.41118 3.60367 1.26331 2.07563 1.06615 0.547606C1.01687 0.251859 1.11544 -0.0438768 1.50976 0.0054144C3.28417 0.301162 5.05857 0.498324 6.78369 0.941945C6.88227 0.991236 6.88227 1.04053 6.98085 1.1884Z" fill="#494949"/>
<path d="M13.2907 4.49097C13.5864 4.49097 13.8822 4.49097 14.1286 4.54026C14.868 4.73743 15.7059 4.78671 15.9523 5.72325C16.1988 6.65978 15.7552 7.39915 15.1144 7.99065C14.9172 8.18781 14.7201 8.33568 14.4736 8.43427C10.6784 10.0116 8.7561 13.1169 7.4253 16.7645C6.83383 18.4897 7.08027 20.1163 8.3125 21.5457C10.8262 24.5032 10.8755 27.6579 8.95326 30.9604C7.42529 33.5235 5.74946 36.0374 3.67932 38.1569C2.93998 38.8962 2.24994 39.6356 1.21486 39.9314C0.968419 39.9807 0.672684 40.0792 0.524817 39.8821C0.32766 39.6356 0.623395 39.4385 0.721973 39.2906C2.29923 36.826 3.92577 34.3615 5.55231 31.9462C6.0452 31.1575 6.39022 30.3196 6.63667 29.4816C7.12956 27.855 6.98169 26.3763 5.70018 25.2426C2.29923 22.0387 2.10207 18.3911 3.53145 14.4478C4.71439 11.1946 6.39022 8.2864 9.10113 6.11759C10.3334 5.13176 11.7134 4.49097 13.2907 4.49097Z" fill="#494949"/>
</g>
</g>
<defs>
<clipPath id="clip0_147_443">
<rect width="48.4441" height="40" fill="white" transform="translate(0.458496)"/>
</clipPath>
</defs>
</svg>
